<svg width="23" height="20" viewBox="0 0 23 20" fill="none" xmlns="http://www.w3.org/2000/svg">
<path d="M21.4598 4.08782C20.4331 2.82585 19.0384 1.82894 17.2758 1.09734C15.5132 0.365752 13.5879 0 11.5 0C9.41223 0 7.48695 0.365752 5.72432 1.09734C3.96169 1.82894 2.56701 2.82567 1.5402 4.08782C0.513339 5.34988 0 6.72527 0 8.21413C0 9.49754 0.387061 10.7001 1.1615 11.8209C1.93593 12.9418 2.99466 13.8832 4.33818 14.6447C4.24396 14.9868 4.13274 15.3119 4.00435 15.6202C3.876 15.9282 3.76051 16.1806 3.65784 16.3775C3.55507 16.5742 3.41616 16.7925 3.24061 17.0319C3.06533 17.2716 2.93272 17.4406 2.84285 17.5391C2.75308 17.6375 2.60549 17.7999 2.4 18.0268C2.19478 18.2534 2.06208 18.4012 2.00224 18.4697C1.99357 18.4741 1.9594 18.5123 1.89952 18.5854C1.83969 18.658 1.80966 18.6941 1.80966 18.6941L1.73265 18.8097C1.68981 18.8735 1.67057 18.9143 1.67479 18.9312C1.67911 18.9485 1.67057 18.9912 1.64917 19.0595C1.62772 19.1281 1.62993 19.1795 1.65555 19.2136V19.2265C1.68981 19.3719 1.75818 19.4897 1.86086 19.5795C1.96354 19.669 2.07925 19.7139 2.20746 19.7139H2.2717C2.82802 19.6453 3.31569 19.5515 3.73489 19.4317C5.97679 18.8585 7.94486 17.8231 9.63898 16.3256C10.2807 16.394 10.901 16.4282 11.4999 16.4282C13.5877 16.4282 15.5131 16.0625 17.2757 15.3307C19.0383 14.599 20.433 13.6024 21.4597 12.3404C22.4866 11.0785 23 9.70294 23 8.21408C23 6.72545 22.4867 5.34988 21.4598 4.08782ZM20.0159 11.4871C19.1214 12.4966 17.915 13.2989 16.3962 13.8935C14.8775 14.4879 13.2452 14.7855 11.4997 14.7855C10.9778 14.7855 10.4217 14.7513 9.8313 14.6827L9.09971 14.6059L8.5478 15.0938C7.49549 16.0179 6.31885 16.7494 5.01826 17.2885C5.41179 16.5956 5.71128 15.8596 5.91673 15.0811L6.26324 13.8488L5.14665 13.2073C4.03429 12.5738 3.17233 11.823 2.5604 10.9545C1.94857 10.0862 1.64278 9.17256 1.64278 8.21431C1.64278 7.04202 2.08986 5.95115 2.98396 4.94147C3.87834 3.93187 5.08466 3.12966 6.6035 2.535C8.12234 1.94029 9.75434 1.64269 11.5 1.64269C13.2455 1.64269 14.8774 1.94016 16.3962 2.53482C17.9149 3.12952 19.1213 3.93169 20.0158 4.94129C20.91 5.95097 21.357 7.04189 21.357 8.21408C21.357 9.38628 20.91 10.4774 20.0159 11.4871Z" fill="#CDCDCD"/>
</svg>
