<svg width="28" height="23" viewBox="0 0 28 23" fill="none" xmlns="http://www.w3.org/2000/svg">
<path d="M14 23C13.6014 23 13.2171 22.8667 12.9176 22.6245C11.7864 21.7113 10.6959 20.8531 9.73373 20.0961L9.72882 20.0922C6.90793 17.8727 4.47198 15.9559 2.7771 14.0678C0.882477 11.957 0 9.95565 0 7.76929C0 5.64507 0.78891 3.68534 2.22125 2.25085C3.67068 0.799395 5.65952 0 7.82202 0C9.43829 0 10.9185 0.471787 12.2214 1.40215C12.8789 1.87176 13.4749 2.44651 14 3.11691C14.5253 2.44651 15.1211 1.87176 15.7788 1.40215C17.0817 0.471787 18.5619 0 20.1782 0C22.3405 0 24.3295 0.799395 25.779 2.25085C27.2113 3.68534 28 5.64507 28 7.76929C28 9.95565 27.1177 11.957 25.2231 14.0676C23.5282 15.9559 21.0925 17.8725 18.272 20.0918C17.3082 20.8499 16.2159 21.7095 15.0822 22.6249C14.7829 22.8667 14.3984 23 14 23ZM7.82202 1.51437C6.12308 1.51437 4.56235 2.1404 3.42694 3.27726C2.27466 4.43128 1.63998 6.02652 1.63998 7.76929C1.63998 9.60812 2.38019 11.2527 4.03983 13.1016C5.64392 14.8887 8.02988 16.766 10.7924 18.9397L10.7976 18.9437C11.7634 19.7036 12.8582 20.5651 13.9977 21.485C15.144 20.5634 16.2405 19.7004 17.2082 18.9393C19.9706 16.7656 22.3563 14.8887 23.9604 13.1016C25.6198 11.2527 26.36 9.60812 26.36 7.76929C26.36 6.02652 25.7253 4.43128 24.5731 3.27726C23.4379 2.1404 21.8769 1.51437 20.1782 1.51437C18.9336 1.51437 17.791 1.87965 16.782 2.59996C15.8829 3.24215 15.2565 4.05397 14.8893 4.62201C14.7005 4.91412 14.3681 5.08847 14 5.08847C13.6319 5.08847 13.2995 4.91412 13.1107 4.62201C12.7437 4.05397 12.1173 3.24215 11.218 2.59996C10.209 1.87965 9.06638 1.51437 7.82202 1.51437Z" fill="#CDCDCD"/>
</svg>
